<svg width="26" height="25" viewBox="0 0 26 25" fill="none" xmlns="http://www.w3.org/2000/svg">
<g clip-path="url(#clip0_43_12)">
<path fill-rule="evenodd" clip-rule="evenodd" d="M13 0C6.09375 0 0.5 5.59375 0.5 12.5C0.5 18.0312 4.07812 22.7031 9.04688 24.3594C9.67188 24.4688 9.90625 24.0938 9.90625 23.7656C9.90625 23.4688 9.89062 22.4844 9.89062 21.4375C6.75 22.0156 5.9375 20.6719 5.6875 19.9688C5.54688 19.6094 4.9375 18.5 4.40625 18.2031C3.96875 17.9688 3.34375 17.3906 4.39062 17.375C5.375 17.3594 6.07812 18.2812 6.3125 18.6562C7.4375 20.5469 9.23437 20.0156 9.95312 19.6875C10.0625 18.875 10.3906 18.3281 10.75 18.0156C7.96875 17.7031 5.0625 16.625 5.0625 11.8437C5.0625 10.4844 5.54688 9.35938 6.34375 8.48438C6.21875 8.17188 5.78125 6.89062 6.46875 5.17188C6.46875 5.17188 7.51562 4.84375 9.90625 6.45312C10.9062 6.17188 11.9687 6.03125 13.0312 6.03125C14.0937 6.03125 15.1562 6.17188 16.1562 6.45312C18.5469 4.82812 19.5938 5.17188 19.5938 5.17188C20.2812 6.89062 19.8438 8.17188 19.7188 8.48438C20.5156 9.35938 21 10.4687 21 11.8437C21 16.6406 18.0781 17.7031 15.2969 18.0156C15.75 18.4062 16.1406 19.1562 16.1406 20.3281C16.1406 22 16.125 23.3438 16.125 23.7656C16.125 24.0938 16.3594 24.4844 16.9844 24.3594C19.4658 23.5216 21.6221 21.9268 23.1496 19.7993C24.6772 17.6719 25.4993 15.119 25.5 12.5C25.5 5.59375 19.9062 0 13 0Z" fill="#2A657C"/>
</g>
<defs>
<clipPath id="clip0_43_12">
<rect width="25" height="25" fill="white" transform="translate(0.5)"/>
</clipPath>
</defs>
</svg>
