<svg width="16" height="18" viewBox="0 0 16 18" fill="none" xmlns="http://www.w3.org/2000/svg">
<path d="M14.4181 11.2502C15.0072 10.144 15.3144 8.90958 15.3126 7.65629C15.3126 3.42776 11.8848 0 7.6563 0C3.42778 0 1.12312e-05 3.42776 1.12312e-05 7.65629C-0.00308805 9.46239 0.635346 11.2109 1.80149 12.5901L1.8105 12.6013C1.81365 12.604 1.81635 12.6077 1.8186 12.6104H1.80149L6.34482 17.4338C6.51324 17.6126 6.71644 17.755 6.94194 17.8524C7.16743 17.9498 7.41045 18 7.65607 18C7.90169 18 8.14471 17.9498 8.37021 17.8524C8.5957 17.755 8.7989 17.6126 8.96732 17.4338L13.5111 12.6104H13.494L13.5012 12.6018L13.5021 12.6009C13.5345 12.5622 13.5669 12.5234 13.5989 12.4838C13.9113 12.0999 14.1858 11.6866 14.4186 11.2498L14.4181 11.2502ZM7.6581 10.5837C6.94143 10.5837 6.25411 10.299 5.74734 9.79223C5.24058 9.28546 4.95588 8.59814 4.95588 7.88147C4.95588 7.1648 5.24058 6.47748 5.74734 5.97071C6.25411 5.46395 6.94143 5.17925 7.6581 5.17925C8.37477 5.17925 9.06209 5.46395 9.56886 5.97071C10.0756 6.47748 10.3603 7.1648 10.3603 7.88147C10.3603 8.59814 10.0756 9.28546 9.56886 9.79223C9.06209 10.299 8.37477 10.5837 7.6581 10.5837Z" fill="#280000"/>
</svg>
